<?xml version="1.0" encoding="utf-8" standalone="no"?>
<!DOCTYPE svg PUBLIC "-//W3C//DTD SVG 1.1//EN"
  "http://www.w3.org/Graphics/SVG/1.1/DTD/svg11.dtd">
<!-- Created with matplotlib (https://matplotlib.org/) -->
<svg height="249.453415pt" version="1.1" viewBox="0 0 381.65 249.453415" width="381.65pt" xmlns="http://www.w3.org/2000/svg" xmlns:xlink="http://www.w3.org/1999/xlink">
 <metadata>
  <rdf:RDF xmlns:cc="http://creativecommons.org/ns#" xmlns:dc="http://purl.org/dc/elements/1.1/" xmlns:rdf="http://www.w3.org/1999/02/22-rdf-syntax-ns#">
   <cc:Work>
    <dc:type rdf:resource="http://purl.org/dc/dcmitype/StillImage"/>
    <dc:date>2021-04-28T22:11:08.578050</dc:date>
    <dc:format>image/svg+xml</dc:format>
    <dc:creator>
     <cc:Agent>
      <dc:title>Matplotlib v3.3.4, https://matplotlib.org/</dc:title>
     </cc:Agent>
    </dc:creator>
   </cc:Work>
  </rdf:RDF>
 </metadata>
 <defs>
  <style type="text/css">*{stroke-linecap:butt;stroke-linejoin:round;}</style>
 </defs>
 <g id="figure_1">
  <g id="patch_1">
   <path d="M -0 249.453415 
L 381.65 249.453415 
L 381.65 0 
L -0 0 
z
" style="fill:none;"/>
  </g>
  <g id="axes_1">
   <g id="patch_2">
    <path d="M 26.925 225.57529 
L 361.725 225.57529 
L 361.725 8.13529 
L 26.925 8.13529 
z
" style="fill:#ffffff;"/>
   </g>
   <g id="matplotlib.axis_1">
    <g id="xtick_1">
     <g id="line2d_1">
      <defs>
       <path d="M 0 0 
L 0 3.5 
" id="mfb3e09bca7" style="stroke:#000000;stroke-width:0.8;"/>
      </defs>
      <g>
       <use style="stroke:#000000;stroke-width:0.8;" x="57.361364" xlink:href="#mfb3e09bca7" y="225.57529"/>
      </g>
     </g>
     <g id="text_1">
      <!-- 2022 -->
      <g transform="translate(44.636364 240.173727)scale(0.1 -0.1)">
       <defs>
        <path d="M 19.1875 8.296875 
L 53.609375 8.296875 
L 53.609375 0 
L 7.328125 0 
L 7.328125 8.296875 
Q 12.9375 14.109375 22.625 23.890625 
Q 32.328125 33.6875 34.8125 36.53125 
Q 39.546875 41.84375 41.421875 45.53125 
Q 43.3125 49.21875 43.3125 52.78125 
Q 43.3125 58.59375 39.234375 62.25 
Q 35.15625 65.921875 28.609375 65.921875 
Q 23.96875 65.921875 18.8125 64.3125 
Q 13.671875 62.703125 7.8125 59.421875 
L 7.8125 69.390625 
Q 13.765625 71.78125 18.9375 73 
Q 24.125 74.21875 28.421875 74.21875 
Q 39.75 74.21875 46.484375 68.546875 
Q 53.21875 62.890625 53.21875 53.421875 
Q 53.21875 48.921875 51.53125 44.890625 
Q 49.859375 40.875 45.40625 35.40625 
Q 44.1875 33.984375 37.640625 27.21875 
Q 31.109375 20.453125 19.1875 8.296875 
z
" id="DejaVuSans-50"/>
        <path d="M 31.78125 66.40625 
Q 24.171875 66.40625 20.328125 58.90625 
Q 16.5 51.421875 16.5 36.375 
Q 16.5 21.390625 20.328125 13.890625 
Q 24.171875 6.390625 31.78125 6.390625 
Q 39.453125 6.390625 43.28125 13.890625 
Q 47.125 21.390625 47.125 36.375 
Q 47.125 51.421875 43.28125 58.90625 
Q 39.453125 66.40625 31.78125 66.40625 
z
M 31.78125 74.21875 
Q 44.046875 74.21875 50.515625 64.515625 
Q 56.984375 54.828125 56.984375 36.375 
Q 56.984375 17.96875 50.515625 8.265625 
Q 44.046875 -1.421875 31.78125 -1.421875 
Q 19.53125 -1.421875 13.0625 8.265625 
Q 6.59375 17.96875 6.59375 36.375 
Q 6.59375 54.828125 13.0625 64.515625 
Q 19.53125 74.21875 31.78125 74.21875 
z
" id="DejaVuSans-48"/>
       </defs>
       <use xlink:href="#DejaVuSans-50"/>
       <use x="63.623047" xlink:href="#DejaVuSans-48"/>
       <use x="127.246094" xlink:href="#DejaVuSans-50"/>
       <use x="190.869141" xlink:href="#DejaVuSans-50"/>
      </g>
     </g>
    </g>
    <g id="xtick_2">
     <g id="line2d_2">
      <g>
       <use style="stroke:#000000;stroke-width:0.8;" x="118.234091" xlink:href="#mfb3e09bca7" y="225.57529"/>
      </g>
     </g>
     <g id="text_2">
      <!-- 2024 -->
      <g transform="translate(105.509091 240.173727)scale(0.1 -0.1)">
       <defs>
        <path d="M 37.796875 64.3125 
L 12.890625 25.390625 
L 37.796875 25.390625 
z
M 35.203125 72.90625 
L 47.609375 72.90625 
L 47.609375 25.390625 
L 58.015625 25.390625 
L 58.015625 17.1875 
L 47.609375 17.1875 
L 47.609375 0 
L 37.796875 0 
L 37.796875 17.1875 
L 4.890625 17.1875 
L 4.890625 26.703125 
z
" id="DejaVuSans-52"/>
       </defs>
       <use xlink:href="#DejaVuSans-50"/>
       <use x="63.623047" xlink:href="#DejaVuSans-48"/>
       <use x="127.246094" xlink:href="#DejaVuSans-50"/>
       <use x="190.869141" xlink:href="#DejaVuSans-52"/>
      </g>
     </g>
    </g>
    <g id="xtick_3">
     <g id="line2d_3">
      <g>
       <use style="stroke:#000000;stroke-width:0.8;" x="179.106818" xlink:href="#mfb3e09bca7" y="225.57529"/>
      </g>
     </g>
     <g id="text_3">
      <!-- 2026 -->
      <g transform="translate(166.381818 240.173727)scale(0.1 -0.1)">
       <defs>
        <path d="M 33.015625 40.375 
Q 26.375 40.375 22.484375 35.828125 
Q 18.609375 31.296875 18.609375 23.390625 
Q 18.609375 15.53125 22.484375 10.953125 
Q 26.375 6.390625 33.015625 6.390625 
Q 39.65625 6.390625 43.53125 10.953125 
Q 47.40625 15.53125 47.40625 23.390625 
Q 47.40625 31.296875 43.53125 35.828125 
Q 39.65625 40.375 33.015625 40.375 
z
M 52.59375 71.296875 
L 52.59375 62.3125 
Q 48.875 64.0625 45.09375 64.984375 
Q 41.3125 65.921875 37.59375 65.921875 
Q 27.828125 65.921875 22.671875 59.328125 
Q 17.53125 52.734375 16.796875 39.40625 
Q 19.671875 43.65625 24.015625 45.921875 
Q 28.375 48.1875 33.59375 48.1875 
Q 44.578125 48.1875 50.953125 41.515625 
Q 57.328125 34.859375 57.328125 23.390625 
Q 57.328125 12.15625 50.6875 5.359375 
Q 44.046875 -1.421875 33.015625 -1.421875 
Q 20.359375 -1.421875 13.671875 8.265625 
Q 6.984375 17.96875 6.984375 36.375 
Q 6.984375 53.65625 15.1875 63.9375 
Q 23.390625 74.21875 37.203125 74.21875 
Q 40.921875 74.21875 44.703125 73.484375 
Q 48.484375 72.75 52.59375 71.296875 
z
" id="DejaVuSans-54"/>
       </defs>
       <use xlink:href="#DejaVuSans-50"/>
       <use x="63.623047" xlink:href="#DejaVuSans-48"/>
       <use x="127.246094" xlink:href="#DejaVuSans-50"/>
       <use x="190.869141" xlink:href="#DejaVuSans-54"/>
      </g>
     </g>
    </g>
    <g id="xtick_4">
     <g id="line2d_4">
      <g>
       <use style="stroke:#000000;stroke-width:0.8;" x="239.979545" xlink:href="#mfb3e09bca7" y="225.57529"/>
      </g>
     </g>
     <g id="text_4">
      <!-- 2028 -->
      <g transform="translate(227.254545 240.173727)scale(0.1 -0.1)">
       <defs>
        <path d="M 31.78125 34.625 
Q 24.75 34.625 20.71875 30.859375 
Q 16.703125 27.09375 16.703125 20.515625 
Q 16.703125 13.921875 20.71875 10.15625 
Q 24.75 6.390625 31.78125 6.390625 
Q 38.8125 6.390625 42.859375 10.171875 
Q 46.921875 13.96875 46.921875 20.515625 
Q 46.921875 27.09375 42.890625 30.859375 
Q 38.875 34.625 31.78125 34.625 
z
M 21.921875 38.8125 
Q 15.578125 40.375 12.03125 44.71875 
Q 8.5 49.078125 8.5 55.328125 
Q 8.5 64.0625 14.71875 69.140625 
Q 20.953125 74.21875 31.78125 74.21875 
Q 42.671875 74.21875 48.875 69.140625 
Q 55.078125 64.0625 55.078125 55.328125 
Q 55.078125 49.078125 51.53125 44.71875 
Q 48 40.375 41.703125 38.8125 
Q 48.828125 37.15625 52.796875 32.3125 
Q 56.78125 27.484375 56.78125 20.515625 
Q 56.78125 9.90625 50.3125 4.234375 
Q 43.84375 -1.421875 31.78125 -1.421875 
Q 19.734375 -1.421875 13.25 4.234375 
Q 6.78125 9.90625 6.78125 20.515625 
Q 6.78125 27.484375 10.78125 32.3125 
Q 14.796875 37.15625 21.921875 38.8125 
z
M 18.3125 54.390625 
Q 18.3125 48.734375 21.84375 45.5625 
Q 25.390625 42.390625 31.78125 42.390625 
Q 38.140625 42.390625 41.71875 45.5625 
Q 45.3125 48.734375 45.3125 54.390625 
Q 45.3125 60.0625 41.71875 63.234375 
Q 38.140625 66.40625 31.78125 66.40625 
Q 25.390625 66.40625 21.84375 63.234375 
Q 18.3125 60.0625 18.3125 54.390625 
z
" id="DejaVuSans-56"/>
       </defs>
       <use xlink:href="#DejaVuSans-50"/>
       <use x="63.623047" xlink:href="#DejaVuSans-48"/>
       <use x="127.246094" xlink:href="#DejaVuSans-50"/>
       <use x="190.869141" xlink:href="#DejaVuSans-56"/>
      </g>
     </g>
    </g>
    <g id="xtick_5">
     <g id="line2d_5">
      <g>
       <use style="stroke:#000000;stroke-width:0.8;" x="300.852273" xlink:href="#mfb3e09bca7" y="225.57529"/>
      </g>
     </g>
     <g id="text_5">
      <!-- 2030 -->
      <g transform="translate(288.127273 240.173727)scale(0.1 -0.1)">
       <defs>
        <path d="M 40.578125 39.3125 
Q 47.65625 37.796875 51.625 33 
Q 55.609375 28.21875 55.609375 21.1875 
Q 55.609375 10.40625 48.1875 4.484375 
Q 40.765625 -1.421875 27.09375 -1.421875 
Q 22.515625 -1.421875 17.65625 -0.515625 
Q 12.796875 0.390625 7.625 2.203125 
L 7.625 11.71875 
Q 11.71875 9.328125 16.59375 8.109375 
Q 21.484375 6.890625 26.8125 6.890625 
Q 36.078125 6.890625 40.9375 10.546875 
Q 45.796875 14.203125 45.796875 21.1875 
Q 45.796875 27.640625 41.28125 31.265625 
Q 36.765625 34.90625 28.71875 34.90625 
L 20.21875 34.90625 
L 20.21875 43.015625 
L 29.109375 43.015625 
Q 36.375 43.015625 40.234375 45.921875 
Q 44.09375 48.828125 44.09375 54.296875 
Q 44.09375 59.90625 40.109375 62.90625 
Q 36.140625 65.921875 28.71875 65.921875 
Q 24.65625 65.921875 20.015625 65.03125 
Q 15.375 64.15625 9.8125 62.3125 
L 9.8125 71.09375 
Q 15.4375 72.65625 20.34375 73.4375 
Q 25.25 74.21875 29.59375 74.21875 
Q 40.828125 74.21875 47.359375 69.109375 
Q 53.90625 64.015625 53.90625 55.328125 
Q 53.90625 49.265625 50.4375 45.09375 
Q 46.96875 40.921875 40.578125 39.3125 
z
" id="DejaVuSans-51"/>
       </defs>
       <use xlink:href="#DejaVuSans-50"/>
       <use x="63.623047" xlink:href="#DejaVuSans-48"/>
       <use x="127.246094" xlink:href="#DejaVuSans-51"/>
       <use x="190.869141" xlink:href="#DejaVuSans-48"/>
      </g>
     </g>
    </g>
    <g id="xtick_6">
     <g id="line2d_6">
      <g>
       <use style="stroke:#000000;stroke-width:0.8;" x="361.725" xlink:href="#mfb3e09bca7" y="225.57529"/>
      </g>
     </g>
     <g id="text_6">
      <!-- 2032 -->
      <g transform="translate(349 240.173727)scale(0.1 -0.1)">
       <use xlink:href="#DejaVuSans-50"/>
       <use x="63.623047" xlink:href="#DejaVuSans-48"/>
       <use x="127.246094" xlink:href="#DejaVuSans-51"/>
       <use x="190.869141" xlink:href="#DejaVuSans-50"/>
      </g>
     </g>
    </g>
    <g id="xtick_7">
     <g id="line2d_7">
      <defs>
       <path d="M 0 0 
L 0 2 
" id="m900d8fce4a" style="stroke:#000000;stroke-width:0.6;"/>
      </defs>
      <g>
       <use style="stroke:#000000;stroke-width:0.6;" x="26.925" xlink:href="#m900d8fce4a" y="225.57529"/>
      </g>
     </g>
    </g>
    <g id="xtick_8">
     <g id="line2d_8">
      <g>
       <use style="stroke:#000000;stroke-width:0.6;" x="87.797727" xlink:href="#m900d8fce4a" y="225.57529"/>
      </g>
     </g>
    </g>
    <g id="xtick_9">
     <g id="line2d_9">
      <g>
       <use style="stroke:#000000;stroke-width:0.6;" x="148.670455" xlink:href="#m900d8fce4a" y="225.57529"/>
      </g>
     </g>
    </g>
    <g id="xtick_10">
     <g id="line2d_10">
      <g>
       <use style="stroke:#000000;stroke-width:0.6;" x="209.543182" xlink:href="#m900d8fce4a" y="225.57529"/>
      </g>
     </g>
    </g>
    <g id="xtick_11">
     <g id="line2d_11">
      <g>
       <use style="stroke:#000000;stroke-width:0.6;" x="270.415909" xlink:href="#m900d8fce4a" y="225.57529"/>
      </g>
     </g>
    </g>
    <g id="xtick_12">
     <g id="line2d_12">
      <g>
       <use style="stroke:#000000;stroke-width:0.6;" x="331.288636" xlink:href="#m900d8fce4a" y="225.57529"/>
      </g>
     </g>
    </g>
   </g>
   <g id="matplotlib.axis_2">
    <g id="ytick_1">
     <g id="line2d_13">
      <defs>
       <path d="M 0 0 
L -3.5 0 
" id="m74c09dfc1d" style="stroke:#000000;stroke-width:0.8;"/>
      </defs>
      <g>
       <use style="stroke:#000000;stroke-width:0.8;" x="26.925" xlink:href="#m74c09dfc1d" y="202.446334"/>
      </g>
     </g>
     <g id="text_7">
      <!-- 30 -->
      <g transform="translate(7.2 206.245553)scale(0.1 -0.1)">
       <use xlink:href="#DejaVuSans-51"/>
       <use x="63.623047" xlink:href="#DejaVuSans-48"/>
      </g>
     </g>
    </g>
    <g id="ytick_2">
     <g id="line2d_14">
      <g>
       <use style="stroke:#000000;stroke-width:0.8;" x="26.925" xlink:href="#m74c09dfc1d" y="170.538481"/>
      </g>
     </g>
     <g id="text_8">
      <!-- 40 -->
      <g transform="translate(7.2 174.3377)scale(0.1 -0.1)">
       <use xlink:href="#DejaVuSans-52"/>
       <use x="63.623047" xlink:href="#DejaVuSans-48"/>
      </g>
     </g>
    </g>
    <g id="ytick_3">
     <g id="line2d_15">
      <g>
       <use style="stroke:#000000;stroke-width:0.8;" x="26.925" xlink:href="#m74c09dfc1d" y="138.630629"/>
      </g>
     </g>
     <g id="text_9">
      <!-- 50 -->
      <g transform="translate(7.2 142.429848)scale(0.1 -0.1)">
       <defs>
        <path d="M 10.796875 72.90625 
L 49.515625 72.90625 
L 49.515625 64.59375 
L 19.828125 64.59375 
L 19.828125 46.734375 
Q 21.96875 47.46875 24.109375 47.828125 
Q 26.265625 48.1875 28.421875 48.1875 
Q 40.625 48.1875 47.75 41.5 
Q 54.890625 34.8125 54.890625 23.390625 
Q 54.890625 11.625 47.5625 5.09375 
Q 40.234375 -1.421875 26.90625 -1.421875 
Q 22.3125 -1.421875 17.546875 -0.640625 
Q 12.796875 0.140625 7.71875 1.703125 
L 7.71875 11.625 
Q 12.109375 9.234375 16.796875 8.0625 
Q 21.484375 6.890625 26.703125 6.890625 
Q 35.15625 6.890625 40.078125 11.328125 
Q 45.015625 15.765625 45.015625 23.390625 
Q 45.015625 31 40.078125 35.4375 
Q 35.15625 39.890625 26.703125 39.890625 
Q 22.75 39.890625 18.8125 39.015625 
Q 14.890625 38.140625 10.796875 36.28125 
z
" id="DejaVuSans-53"/>
       </defs>
       <use xlink:href="#DejaVuSans-53"/>
       <use x="63.623047" xlink:href="#DejaVuSans-48"/>
      </g>
     </g>
    </g>
    <g id="ytick_4">
     <g id="line2d_16">
      <g>
       <use style="stroke:#000000;stroke-width:0.8;" x="26.925" xlink:href="#m74c09dfc1d" y="106.722776"/>
      </g>
     </g>
     <g id="text_10">
      <!-- 60 -->
      <g transform="translate(7.2 110.521995)scale(0.1 -0.1)">
       <use xlink:href="#DejaVuSans-54"/>
       <use x="63.623047" xlink:href="#DejaVuSans-48"/>
      </g>
     </g>
    </g>
    <g id="ytick_5">
     <g id="line2d_17">
      <g>
       <use style="stroke:#000000;stroke-width:0.8;" x="26.925" xlink:href="#m74c09dfc1d" y="74.814924"/>
      </g>
     </g>
     <g id="text_11">
      <!-- 70 -->
      <g transform="translate(7.2 78.614143)scale(0.1 -0.1)">
       <defs>
        <path d="M 8.203125 72.90625 
L 55.078125 72.90625 
L 55.078125 68.703125 
L 28.609375 0 
L 18.3125 0 
L 43.21875 64.59375 
L 8.203125 64.59375 
z
" id="DejaVuSans-55"/>
       </defs>
       <use xlink:href="#DejaVuSans-55"/>
       <use x="63.623047" xlink:href="#DejaVuSans-48"/>
      </g>
     </g>
    </g>
    <g id="ytick_6">
     <g id="line2d_18">
      <g>
       <use style="stroke:#000000;stroke-width:0.8;" x="26.925" xlink:href="#m74c09dfc1d" y="42.907071"/>
      </g>
     </g>
     <g id="text_12">
      <!-- 80 -->
      <g transform="translate(7.2 46.70629)scale(0.1 -0.1)">
       <use xlink:href="#DejaVuSans-56"/>
       <use x="63.623047" xlink:href="#DejaVuSans-48"/>
      </g>
     </g>
    </g>
    <g id="ytick_7">
     <g id="line2d_19">
      <g>
       <use style="stroke:#000000;stroke-width:0.8;" x="26.925" xlink:href="#m74c09dfc1d" y="10.999219"/>
      </g>
     </g>
     <g id="text_13">
      <!-- 90 -->
      <g transform="translate(7.2 14.798437)scale(0.1 -0.1)">
       <defs>
        <path d="M 10.984375 1.515625 
L 10.984375 10.5 
Q 14.703125 8.734375 18.5 7.8125 
Q 22.3125 6.890625 25.984375 6.890625 
Q 35.75 6.890625 40.890625 13.453125 
Q 46.046875 20.015625 46.78125 33.40625 
Q 43.953125 29.203125 39.59375 26.953125 
Q 35.25 24.703125 29.984375 24.703125 
Q 19.046875 24.703125 12.671875 31.3125 
Q 6.296875 37.9375 6.296875 49.421875 
Q 6.296875 60.640625 12.9375 67.421875 
Q 19.578125 74.21875 30.609375 74.21875 
Q 43.265625 74.21875 49.921875 64.515625 
Q 56.59375 54.828125 56.59375 36.375 
Q 56.59375 19.140625 48.40625 8.859375 
Q 40.234375 -1.421875 26.421875 -1.421875 
Q 22.703125 -1.421875 18.890625 -0.6875 
Q 15.09375 0.046875 10.984375 1.515625 
z
M 30.609375 32.421875 
Q 37.25 32.421875 41.125 36.953125 
Q 45.015625 41.5 45.015625 49.421875 
Q 45.015625 57.28125 41.125 61.84375 
Q 37.25 66.40625 30.609375 66.40625 
Q 23.96875 66.40625 20.09375 61.84375 
Q 16.21875 57.28125 16.21875 49.421875 
Q 16.21875 41.5 20.09375 36.953125 
Q 23.96875 32.421875 30.609375 32.421875 
z
" id="DejaVuSans-57"/>
       </defs>
       <use xlink:href="#DejaVuSans-57"/>
       <use x="63.623047" xlink:href="#DejaVuSans-48"/>
      </g>
     </g>
    </g>
   </g>
   <g id="line2d_20">
    <path clip-path="url(#p705f49aa84)" d="M 26.925 87.578065 
L 57.361364 95.935275 
L 87.797727 84.529095 
L 118.234091 111.962224 
L 148.670455 103.700397 
L 179.106818 136.527596 
L 209.543182 141.219398 
L 239.979545 145.881239 
L 270.415909 127.740498 
L 300.852273 130.205397 
L 331.288636 142.238328 
L 361.725 120.466446 
" style="fill:none;stroke:#1f77b4;stroke-linecap:square;stroke-width:1.5;"/>
   </g>
   <g id="line2d_21">
    <path clip-path="url(#p705f49aa84)" d="M 26.925 87.578065 
L 57.361364 105.396928 
L 87.797727 98.709695 
L 118.234091 111.395903 
L 148.670455 112.73812 
L 179.106818 112.384165 
L 209.543182 137.156024 
L 239.979545 137.363466 
L 270.415909 155.977721 
L 300.852273 171.422301 
L 331.288636 176.519084 
L 361.725 206.059047 
" style="fill:none;stroke:#ff7f0e;stroke-linecap:square;stroke-width:1.5;"/>
   </g>
   <g id="line2d_22">
    <path clip-path="url(#p705f49aa84)" d="M 26.925 87.578065 
L 57.361364 90.320818 
L 87.797727 86.021614 
L 118.234091 78.776343 
L 148.670455 93.846534 
L 179.106818 88.303879 
L 209.543182 69.099388 
L 239.979545 58.313684 
L 270.415909 90.622153 
L 300.852273 125.436545 
L 331.288636 121.348157 
L 361.725 103.916815 
" style="fill:none;stroke:#2ca02c;stroke-linecap:square;stroke-width:1.5;"/>
   </g>
   <g id="line2d_23">
    <path clip-path="url(#p705f49aa84)" d="M 26.925 87.578065 
L 57.361364 78.522815 
L 87.797727 82.014872 
L 118.234091 85.476454 
L 148.670455 87.381135 
L 179.106818 90.325736 
L 209.543182 103.498972 
L 239.979545 78.129483 
L 270.415909 70.612088 
L 300.852273 88.089069 
L 331.288636 99.240471 
L 361.725 121.57926 
" style="fill:none;stroke:#d62728;stroke-linecap:square;stroke-width:1.5;"/>
   </g>
   <g id="line2d_24">
    <path clip-path="url(#p705f49aa84)" d="M 26.925 87.578065 
L 57.361364 117.479494 
L 87.797727 126.286061 
L 118.234091 116.466754 
L 148.670455 110.755823 
L 179.106818 105.432687 
L 209.543182 129.397068 
L 239.979545 118.962459 
L 270.415909 124.355597 
L 300.852273 105.291814 
L 331.288636 114.46646 
L 361.725 90.64677 
" style="fill:none;stroke:#9467bd;stroke-linecap:square;stroke-width:1.5;"/>
   </g>
   <g id="line2d_25">
    <path clip-path="url(#p705f49aa84)" d="M 26.925 87.578065 
L 57.361364 81.87654 
L 87.797727 95.446268 
L 118.234091 107.796083 
L 148.670455 118.494967 
L 179.106818 105.354704 
L 209.543182 117.325873 
L 239.979545 122.593808 
L 270.415909 106.265074 
L 300.852273 102.371317 
L 331.288636 111.553297 
L 361.725 110.870248 
" style="fill:none;stroke:#8c564b;stroke-linecap:square;stroke-width:1.5;"/>
   </g>
   <g id="line2d_26">
    <path clip-path="url(#p705f49aa84)" d="M 26.925 87.578065 
L 57.361364 118.816897 
L 87.797727 114.916764 
L 118.234091 73.445313 
L 148.670455 48.573946 
L 179.106818 18.018926 
L 209.543182 22.629385 
L 239.979545 44.70438 
L 270.415909 38.323695 
L 300.852273 69.661409 
L 331.288636 124.91675 
L 361.725 120.532087 
" style="fill:none;stroke:#e377c2;stroke-linecap:square;stroke-width:1.5;"/>
   </g>
   <g id="line2d_27">
    <path clip-path="url(#p705f49aa84)" d="M 26.925 87.578065 
L 57.361364 82.571852 
L 87.797727 64.266412 
L 118.234091 60.758129 
L 148.670455 64.483922 
L 179.106818 90.731059 
L 209.543182 99.051783 
L 239.979545 123.705043 
L 270.415909 132.430484 
L 300.852273 103.043615 
L 331.288636 104.492187 
L 361.725 103.061109 
" style="fill:none;stroke:#7f7f7f;stroke-linecap:square;stroke-width:1.5;"/>
   </g>
   <g id="line2d_28">
    <path clip-path="url(#p705f49aa84)" d="M 26.925 87.578065 
L 57.361364 51.510394 
L 87.797727 94.353797 
L 118.234091 115.340573 
L 148.670455 103.436755 
L 179.106818 120.570375 
L 209.543182 136.593524 
L 239.979545 129.586731 
L 270.415909 119.397758 
L 300.852273 111.370956 
L 331.288636 129.387589 
L 361.725 119.140133 
" style="fill:none;stroke:#bcbd22;stroke-linecap:square;stroke-width:1.5;"/>
   </g>
   <g id="line2d_29">
    <path clip-path="url(#p705f49aa84)" d="M 26.925 87.578065 
L 57.361364 109.133973 
L 87.797727 129.691272 
L 118.234091 126.377686 
L 148.670455 134.546391 
L 179.106818 151.659316 
L 209.543182 150.853763 
L 239.979545 167.40216 
L 270.415909 173.698849 
L 300.852273 176.166153 
L 331.288636 182.560793 
L 361.725 195.44728 
" style="fill:none;stroke:#17becf;stroke-linecap:square;stroke-width:1.5;"/>
   </g>
   <g id="line2d_30">
    <path clip-path="url(#p705f49aa84)" d="M 26.925 87.578065 
L 57.361364 76.132624 
L 87.797727 117.733518 
L 118.234091 116.181953 
L 148.670455 132.849545 
L 179.106818 146.149521 
L 209.543182 175.63248 
L 239.979545 173.288427 
L 270.415909 179.775444 
L 300.852273 159.155971 
L 331.288636 167.328868 
L 361.725 183.208692 
" style="fill:none;stroke:#1f77b4;stroke-linecap:square;stroke-width:1.5;"/>
   </g>
   <g id="line2d_31">
    <path clip-path="url(#p705f49aa84)" d="M 26.925 87.578065 
L 57.361364 78.453327 
L 87.797727 76.666763 
L 118.234091 90.081807 
L 148.670455 69.198683 
L 179.106818 73.335112 
L 209.543182 86.207442 
L 239.979545 84.411575 
L 270.415909 109.309974 
L 300.852273 111.888823 
L 331.288636 134.369443 
L 361.725 126.496679 
" style="fill:none;stroke:#ff7f0e;stroke-linecap:square;stroke-width:1.5;"/>
   </g>
   <g id="line2d_32">
    <path clip-path="url(#p705f49aa84)" d="M 26.925 87.578065 
L 57.361364 95.904821 
L 87.797727 83.930092 
L 118.234091 102.362517 
L 148.670455 98.505334 
L 179.106818 105.916127 
L 209.543182 129.40314 
L 239.979545 120.223977 
L 270.415909 95.482736 
L 300.852273 50.524929 
L 331.288636 59.496985 
L 361.725 61.155746 
" style="fill:none;stroke:#2ca02c;stroke-linecap:square;stroke-width:1.5;"/>
   </g>
   <g id="line2d_33">
    <path clip-path="url(#p705f49aa84)" d="M 26.925 87.578065 
L 57.361364 111.296707 
L 87.797727 90.481449 
L 118.234091 123.891326 
L 148.670455 145.476233 
L 179.106818 149.513847 
L 209.543182 155.735787 
L 239.979545 139.176463 
L 270.415909 157.697492 
L 300.852273 158.835819 
L 331.288636 163.493832 
L 361.725 159.277235 
" style="fill:none;stroke:#d62728;stroke-linecap:square;stroke-width:1.5;"/>
   </g>
   <g id="line2d_34">
    <path clip-path="url(#p705f49aa84)" d="M 26.925 87.578065 
L 57.361364 78.845099 
L 87.797727 81.056841 
L 118.234091 82.015359 
L 148.670455 88.325835 
L 179.106818 120.352525 
L 209.543182 153.296266 
L 239.979545 146.951979 
L 270.415909 169.87595 
L 300.852273 180.574979 
L 331.288636 173.623523 
L 361.725 176.746392 
" style="fill:none;stroke:#9467bd;stroke-linecap:square;stroke-width:1.5;"/>
   </g>
   <g id="line2d_35">
    <path clip-path="url(#p705f49aa84)" d="M 26.925 87.578065 
L 57.361364 108.90127 
L 87.797727 112.554321 
L 118.234091 92.410015 
L 148.670455 126.222717 
L 179.106818 132.664264 
L 209.543182 118.657999 
L 239.979545 117.566637 
L 270.415909 130.700155 
L 300.852273 132.114285 
L 331.288636 127.213152 
L 361.725 112.896349 
" style="fill:none;stroke:#8c564b;stroke-linecap:square;stroke-width:1.5;"/>
   </g>
   <g id="line2d_36">
    <path clip-path="url(#p705f49aa84)" d="M 26.925 87.578065 
L 57.361364 108.215809 
L 87.797727 108.030928 
L 118.234091 105.295343 
L 148.670455 105.951283 
L 179.106818 103.796834 
L 209.543182 94.156047 
L 239.979545 92.477614 
L 270.415909 56.428878 
L 300.852273 77.319083 
L 331.288636 90.796678 
L 361.725 120.753878 
" style="fill:none;stroke:#e377c2;stroke-linecap:square;stroke-width:1.5;"/>
   </g>
   <g id="line2d_37">
    <path clip-path="url(#p705f49aa84)" d="M 26.925 87.578065 
L 57.361364 90.17931 
L 87.797727 99.011471 
L 118.234091 123.095218 
L 148.670455 93.695985 
L 179.106818 92.727776 
L 209.543182 85.192044 
L 239.979545 113.99614 
L 270.415909 112.246636 
L 300.852273 107.958023 
L 331.288636 84.087589 
L 361.725 81.362822 
" style="fill:none;stroke:#7f7f7f;stroke-linecap:square;stroke-width:1.5;"/>
   </g>
   <g id="line2d_38">
    <path clip-path="url(#p705f49aa84)" d="M 26.925 87.578065 
L 57.361364 119.563058 
L 87.797727 126.093329 
L 118.234091 127.088371 
L 148.670455 130.985297 
L 179.106818 137.570478 
L 209.543182 143.908421 
L 239.979545 123.121324 
L 270.415909 132.789613 
L 300.852273 122.396852 
L 331.288636 113.863394 
L 361.725 123.402601 
" style="fill:none;stroke:#bcbd22;stroke-linecap:square;stroke-width:1.5;"/>
   </g>
   <g id="line2d_39">
    <path clip-path="url(#p705f49aa84)" d="M 26.925 87.578065 
L 57.361364 133.031218 
L 87.797727 144.661362 
L 118.234091 127.205871 
L 148.670455 139.842573 
L 179.106818 174.47369 
L 209.543182 155.839679 
L 239.979545 176.328322 
L 270.415909 151.310856 
L 300.852273 151.638626 
L 331.288636 172.622633 
L 361.725 181.391231 
" style="fill:none;stroke:#17becf;stroke-linecap:square;stroke-width:1.5;"/>
   </g>
   <g id="line2d_40">
    <path clip-path="url(#p705f49aa84)" d="M 26.925 87.578065 
L 57.361364 91.114935 
L 87.797727 98.679692 
L 118.234091 101.459282 
L 148.670455 109.374233 
L 179.106818 124.178589 
L 209.543182 116.637307 
L 239.979545 96.053208 
L 270.415909 100.281053 
L 300.852273 79.526073 
L 331.288636 68.762214 
L 361.725 102.172962 
" style="fill:none;stroke:#1f77b4;stroke-linecap:square;stroke-width:1.5;"/>
   </g>
   <g id="line2d_41">
    <path clip-path="url(#p705f49aa84)" d="M 26.925 87.578065 
L 57.361364 72.227643 
L 87.797727 113.461546 
L 118.234091 126.520168 
L 148.670455 121.467611 
L 179.106818 139.069997 
L 209.543182 140.330487 
L 239.979545 147.051312 
L 270.415909 163.500049 
L 300.852273 165.354653 
L 331.288636 171.934693 
L 361.725 171.949035 
" style="fill:none;stroke:#ff7f0e;stroke-linecap:square;stroke-width:1.5;"/>
   </g>
   <g id="line2d_42">
    <path clip-path="url(#p705f49aa84)" d="M 26.925 87.578065 
L 57.361364 107.195502 
L 87.797727 126.767604 
L 118.234091 141.262868 
L 148.670455 136.15036 
L 179.106818 156.26084 
L 209.543182 135.524189 
L 239.979545 153.711135 
L 270.415909 124.315722 
L 300.852273 132.950766 
L 331.288636 144.228738 
L 361.725 155.524424 
" style="fill:none;stroke:#2ca02c;stroke-linecap:square;stroke-width:1.5;"/>
   </g>
   <g id="line2d_43">
    <path clip-path="url(#p705f49aa84)" d="M 26.925 87.578065 
L 57.361364 93.241926 
L 87.797727 115.918821 
L 118.234091 118.250293 
L 148.670455 115.306205 
L 179.106818 117.173882 
L 209.543182 100.684331 
L 239.979545 147.951148 
L 270.415909 153.002996 
L 300.852273 164.173201 
L 331.288636 156.148299 
L 361.725 124.821884 
" style="fill:none;stroke:#d62728;stroke-linecap:square;stroke-width:1.5;"/>
   </g>
   <g id="line2d_44">
    <path clip-path="url(#p705f49aa84)" d="M 26.925 87.578065 
L 57.361364 108.754422 
L 87.797727 117.717281 
L 118.234091 106.24037 
L 148.670455 94.241815 
L 179.106818 112.321334 
L 209.543182 102.594325 
L 239.979545 108.783701 
L 270.415909 96.489117 
L 300.852273 100.84206 
L 331.288636 96.97266 
L 361.725 102.169202 
" style="fill:none;stroke:#9467bd;stroke-linecap:square;stroke-width:1.5;"/>
   </g>
   <g id="line2d_45">
    <path clip-path="url(#p705f49aa84)" d="M 26.925 87.578065 
L 57.361364 109.352413 
L 87.797727 105.492254 
L 118.234091 121.713035 
L 148.670455 140.795304 
L 179.106818 145.155218 
L 209.543182 137.838198 
L 239.979545 128.366201 
L 270.415909 141.918055 
L 300.852273 145.131152 
L 331.288636 136.283023 
L 361.725 148.128216 
" style="fill:none;stroke:#8c564b;stroke-linecap:square;stroke-width:1.5;"/>
   </g>
   <g id="line2d_46">
    <path clip-path="url(#p705f49aa84)" d="M 26.925 87.578065 
L 57.361364 91.439102 
L 87.797727 113.848244 
L 118.234091 107.147061 
L 148.670455 116.250745 
L 179.106818 93.842216 
L 209.543182 102.165382 
L 239.979545 82.051371 
L 270.415909 51.598925 
L 300.852273 52.036895 
L 331.288636 53.428912 
L 361.725 69.082395 
" style="fill:none;stroke:#e377c2;stroke-linecap:square;stroke-width:1.5;"/>
   </g>
   <g id="line2d_47">
    <path clip-path="url(#p705f49aa84)" d="M 26.925 87.578065 
L 57.361364 80.31404 
L 87.797727 54.169835 
L 118.234091 43.417231 
L 148.670455 67.244313 
L 179.106818 54.293708 
L 209.543182 75.201237 
L 239.979545 52.565299 
L 270.415909 42.375015 
L 300.852273 44.798606 
L 331.288636 75.235701 
L 361.725 72.160602 
" style="fill:none;stroke:#7f7f7f;stroke-linecap:square;stroke-width:1.5;"/>
   </g>
   <g id="line2d_48">
    <path clip-path="url(#p705f49aa84)" d="M 26.925 87.578065 
L 57.361364 105.841856 
L 87.797727 111.978438 
L 118.234091 142.099564 
L 148.670455 141.362164 
L 179.106818 135.937341 
L 209.543182 122.772476 
L 239.979545 135.326234 
L 270.415909 144.68847 
L 300.852273 123.037998 
L 331.288636 105.367387 
L 361.725 137.459373 
" style="fill:none;stroke:#bcbd22;stroke-linecap:square;stroke-width:1.5;"/>
   </g>
   <g id="line2d_49">
    <path clip-path="url(#p705f49aa84)" d="M 26.925 87.578065 
L 57.361364 77.660397 
L 87.797727 96.64103 
L 118.234091 86.025222 
L 148.670455 96.804986 
L 179.106818 108.606005 
L 209.543182 132.933136 
L 239.979545 112.605217 
L 270.415909 132.906931 
L 300.852273 188.563863 
L 331.288636 208.707763 
L 361.725 215.691653 
" style="fill:none;stroke:#17becf;stroke-linecap:square;stroke-width:1.5;"/>
   </g>
   <g id="line2d_50">
    <path clip-path="url(#p705f49aa84)" d="M 26.925 87.578065 
L 57.361364 71.805567 
L 87.797727 97.777918 
L 118.234091 113.159209 
L 148.670455 118.223075 
L 179.106818 113.172673 
L 209.543182 142.302987 
L 239.979545 174.850567 
L 270.415909 190.474128 
L 300.852273 179.284179 
L 331.288636 183.258292 
L 361.725 172.075483 
" style="fill:none;stroke:#1f77b4;stroke-linecap:square;stroke-width:1.5;"/>
   </g>
   <g id="line2d_51">
    <path clip-path="url(#p705f49aa84)" d="M 26.925 87.578065 
L 57.361364 80.17398 
L 87.797727 84.758992 
L 118.234091 92.452152 
L 148.670455 91.615518 
L 179.106818 93.68648 
L 209.543182 96.958262 
L 239.979545 128.249298 
L 270.415909 126.579079 
L 300.852273 132.112822 
L 331.288636 127.314072 
L 361.725 126.219981 
" style="fill:none;stroke:#ff7f0e;stroke-linecap:square;stroke-width:1.5;"/>
   </g>
   <g id="line2d_52">
    <path clip-path="url(#p705f49aa84)" d="M 26.925 87.578065 
L 57.361364 87.027122 
L 87.797727 68.746057 
L 118.234091 68.400555 
L 148.670455 76.236633 
L 179.106818 81.538238 
L 209.543182 71.552721 
L 239.979545 90.446034 
L 270.415909 96.070761 
L 300.852273 107.346641 
L 331.288636 135.378338 
L 361.725 124.08847 
" style="fill:none;stroke:#2ca02c;stroke-linecap:square;stroke-width:1.5;"/>
   </g>
   <g id="line2d_53">
    <path clip-path="url(#p705f49aa84)" d="M 26.925 87.578065 
L 57.361364 98.692627 
L 87.797727 106.067244 
L 118.234091 100.104781 
L 148.670455 75.826638 
L 179.106818 84.204955 
L 209.543182 58.613433 
L 239.979545 44.94792 
L 270.415909 85.491269 
L 300.852273 93.255839 
L 331.288636 90.191478 
L 361.725 99.716203 
" style="fill:none;stroke:#d62728;stroke-linecap:square;stroke-width:1.5;"/>
   </g>
   <g id="line2d_54">
    <path clip-path="url(#p705f49aa84)" d="M 26.925 87.578065 
L 57.361364 87.404627 
L 87.797727 84.462562 
L 118.234091 94.215939 
L 148.670455 128.073008 
L 179.106818 123.766906 
L 209.543182 143.268207 
L 239.979545 130.078526 
L 270.415909 127.829352 
L 300.852273 82.555995 
L 331.288636 82.952865 
L 361.725 118.706148 
" style="fill:none;stroke:#9467bd;stroke-linecap:square;stroke-width:1.5;"/>
   </g>
   <g id="line2d_55">
    <path clip-path="url(#p705f49aa84)" d="M 26.925 87.578065 
L 57.361364 85.1062 
L 87.797727 71.904044 
L 118.234091 56.20721 
L 148.670455 80.392098 
L 179.106818 103.264596 
L 209.543182 94.111465 
L 239.979545 116.523692 
L 270.415909 149.068968 
L 300.852273 159.57002 
L 331.288636 161.285636 
L 361.725 148.884611 
" style="fill:none;stroke:#8c564b;stroke-linecap:square;stroke-width:1.5;"/>
   </g>
   <g id="line2d_56">
    <path clip-path="url(#p705f49aa84)" d="M 26.925 87.578065 
L 57.361364 105.073881 
L 87.797727 102.73133 
L 118.234091 105.298352 
L 148.670455 97.043763 
L 179.106818 122.671844 
L 209.543182 91.710053 
L 239.979545 116.226115 
L 270.415909 101.641894 
L 300.852273 91.067707 
L 331.288636 109.286077 
L 361.725 114.304319 
" style="fill:none;stroke:#e377c2;stroke-linecap:square;stroke-width:1.5;"/>
   </g>
   <g id="line2d_57">
    <path clip-path="url(#p705f49aa84)" d="M 26.925 87.578065 
L 57.361364 82.950001 
L 87.797727 73.93714 
L 118.234091 81.311016 
L 148.670455 84.219173 
L 179.106818 101.616225 
L 209.543182 94.11072 
L 239.979545 88.354039 
L 270.415909 97.553087 
L 300.852273 118.140586 
L 331.288636 103.758788 
L 361.725 122.688428 
" style="fill:none;stroke:#7f7f7f;stroke-linecap:square;stroke-width:1.5;"/>
   </g>
   <g id="line2d_58">
    <path clip-path="url(#p705f49aa84)" d="M 26.925 87.578065 
L 57.361364 105.663452 
L 87.797727 104.785411 
L 118.234091 109.379502 
L 148.670455 133.891689 
L 179.106818 142.691772 
L 209.543182 152.304186 
L 239.979545 136.274962 
L 270.415909 98.261831 
L 300.852273 75.157021 
L 331.288636 53.835144 
L 361.725 37.156969 
" style="fill:none;stroke:#bcbd22;stroke-linecap:square;stroke-width:1.5;"/>
   </g>
   <g id="line2d_59">
    <path clip-path="url(#p705f49aa84)" d="M 26.925 87.578065 
L 57.361364 98.61932 
L 87.797727 121.711865 
L 118.234091 106.399669 
L 148.670455 105.39052 
L 179.106818 123.293474 
L 209.543182 115.984555 
L 239.979545 118.404931 
L 270.415909 104.445413 
L 300.852273 111.102394 
L 331.288636 123.29929 
L 361.725 124.3662 
" style="fill:none;stroke:#17becf;stroke-linecap:square;stroke-width:1.5;"/>
   </g>
   <g id="line2d_60">
    <path clip-path="url(#p705f49aa84)" d="M 26.925 87.578065 
L 57.361364 78.25149 
L 87.797727 89.270758 
L 118.234091 101.266167 
L 148.670455 102.765722 
L 179.106818 126.34929 
L 209.543182 135.954772 
L 239.979545 124.463057 
L 270.415909 141.04053 
L 300.852273 123.930164 
L 331.288636 135.611613 
L 361.725 140.36114 
" style="fill:none;stroke:#1f77b4;stroke-linecap:square;stroke-width:1.5;"/>
   </g>
   <g id="line2d_61">
    <path clip-path="url(#p705f49aa84)" d="M 26.925 87.578065 
L 57.361364 91.747823 
L 87.797727 117.791476 
L 118.234091 146.898665 
L 148.670455 143.36117 
L 179.106818 159.644058 
L 209.543182 163.637427 
L 239.979545 152.180229 
L 270.415909 155.464576 
L 300.852273 163.913723 
L 331.288636 180.690336 
L 361.725 175.477255 
" style="fill:none;stroke:#ff7f0e;stroke-linecap:square;stroke-width:1.5;"/>
   </g>
   <g id="line2d_62">
    <path clip-path="url(#p705f49aa84)" d="M 26.925 87.578065 
L 57.361364 109.48209 
L 87.797727 137.356185 
L 118.234091 145.129083 
L 148.670455 125.975187 
L 179.106818 133.13634 
L 209.543182 136.863884 
L 239.979545 139.397754 
L 270.415909 137.795376 
L 300.852273 154.356106 
L 331.288636 174.360753 
L 361.725 172.237213 
" style="fill:none;stroke:#2ca02c;stroke-linecap:square;stroke-width:1.5;"/>
   </g>
   <g id="line2d_63">
    <path clip-path="url(#p705f49aa84)" d="M 26.925 87.578065 
L 57.361364 121.400136 
L 87.797727 128.643586 
L 118.234091 135.300231 
L 148.670455 144.004407 
L 179.106818 142.377379 
L 209.543182 154.021992 
L 239.979545 140.252246 
L 270.415909 154.381379 
L 300.852273 177.062122 
L 331.288636 177.351459 
L 361.725 164.763618 
" style="fill:none;stroke:#d62728;stroke-linecap:square;stroke-width:1.5;"/>
   </g>
   <g id="line2d_64">
    <path clip-path="url(#p705f49aa84)" d="M 26.925 87.578065 
L 57.361364 97.236515 
L 87.797727 75.367987 
L 118.234091 108.370611 
L 148.670455 97.629438 
L 179.106818 79.56052 
L 209.543182 87.833148 
L 239.979545 79.068541 
L 270.415909 91.018809 
L 300.852273 104.876194 
L 331.288636 112.089767 
L 361.725 104.29626 
" style="fill:none;stroke:#9467bd;stroke-linecap:square;stroke-width:1.5;"/>
   </g>
   <g id="line2d_65">
    <path clip-path="url(#p705f49aa84)" d="M 26.925 87.578065 
L 57.361364 70.6211 
L 87.797727 82.290696 
L 118.234091 98.388899 
L 148.670455 84.436625 
L 179.106818 87.239716 
L 209.543182 51.01969 
L 239.979545 79.213475 
L 270.415909 89.48877 
L 300.852273 102.973068 
L 331.288636 85.276093 
L 361.725 104.111244 
" style="fill:none;stroke:#8c564b;stroke-linecap:square;stroke-width:1.5;"/>
   </g>
   <g id="line2d_66">
    <path clip-path="url(#p705f49aa84)" d="M 26.925 87.578065 
L 57.361364 135.211451 
L 87.797727 162.11458 
L 118.234091 160.527892 
L 148.670455 172.912537 
L 179.106818 150.99664 
L 209.543182 176.886227 
L 239.979545 176.853738 
L 270.415909 198.4489 
L 300.852273 197.475384 
L 331.288636 206.320429 
L 361.725 210.007759 
" style="fill:none;stroke:#e377c2;stroke-linecap:square;stroke-width:1.5;"/>
   </g>
   <g id="line2d_67">
    <path clip-path="url(#p705f49aa84)" d="M 26.925 87.578065 
L 57.361364 81.095095 
L 87.797727 101.82396 
L 118.234091 117.309581 
L 148.670455 132.459144 
L 179.106818 145.092403 
L 209.543182 127.466062 
L 239.979545 114.4038 
L 270.415909 117.287124 
L 300.852273 140.350436 
L 331.288636 141.26959 
L 361.725 152.047168 
" style="fill:none;stroke:#7f7f7f;stroke-linecap:square;stroke-width:1.5;"/>
   </g>
   <g id="line2d_68">
    <path clip-path="url(#p705f49aa84)" d="M 26.925 87.578065 
L 57.361364 107.733893 
L 87.797727 112.39225 
L 118.234091 131.109819 
L 148.670455 141.7457 
L 179.106818 129.749931 
L 209.543182 117.427511 
L 239.979545 154.235601 
L 270.415909 149.930654 
L 300.852273 150.002832 
L 331.288636 145.903695 
L 361.725 157.390179 
" style="fill:none;stroke:#bcbd22;stroke-linecap:square;stroke-width:1.5;"/>
   </g>
   <g id="line2d_69">
    <path clip-path="url(#p705f49aa84)" d="M 26.925 87.578065 
L 57.361364 131.543596 
L 87.797727 141.878481 
L 118.234091 133.401723 
L 148.670455 158.838707 
L 179.106818 169.070159 
L 209.543182 182.018064 
L 239.979545 178.276899 
L 270.415909 159.515591 
L 300.852273 168.777999 
L 331.288636 136.85672 
L 361.725 150.043998 
" style="fill:none;stroke:#17becf;stroke-linecap:square;stroke-width:1.5;"/>
   </g>
   <g id="patch_3">
    <path d="M 26.925 225.57529 
L 26.925 8.13529 
" style="fill:none;stroke:#000000;stroke-linecap:square;stroke-linejoin:miter;stroke-width:0.8;"/>
   </g>
   <g id="patch_4">
    <path d="M 361.725 225.57529 
L 361.725 8.13529 
" style="fill:none;stroke:#000000;stroke-linecap:square;stroke-linejoin:miter;stroke-width:0.8;"/>
   </g>
   <g id="patch_5">
    <path d="M 26.925 225.57529 
L 361.725 225.57529 
" style="fill:none;stroke:#000000;stroke-linecap:square;stroke-linejoin:miter;stroke-width:0.8;"/>
   </g>
   <g id="patch_6">
    <path d="M 26.925 8.13529 
L 361.725 8.13529 
" style="fill:none;stroke:#000000;stroke-linecap:square;stroke-linejoin:miter;stroke-width:0.8;"/>
   </g>
  </g>
 </g>
 <defs>
  <clipPath id="p705f49aa84">
   <rect height="217.44" width="334.8" x="26.925" y="8.13529"/>
  </clipPath>
 </defs>
</svg>
