<?xml version="1.0" encoding="utf-8" standalone="no"?>
<!DOCTYPE svg PUBLIC "-//W3C//DTD SVG 1.1//EN"
  "http://www.w3.org/Graphics/SVG/1.1/DTD/svg11.dtd">
<!-- Created with matplotlib (https://matplotlib.org/) -->
<svg height="465.958125pt" version="1.1" viewBox="0 0 710.0875 465.958125" width="710.0875pt" xmlns="http://www.w3.org/2000/svg" xmlns:xlink="http://www.w3.org/1999/xlink">
 <metadata>
  <rdf:RDF xmlns:cc="http://creativecommons.org/ns#" xmlns:dc="http://purl.org/dc/elements/1.1/" xmlns:rdf="http://www.w3.org/1999/02/22-rdf-syntax-ns#">
   <cc:Work>
    <dc:type rdf:resource="http://purl.org/dc/dcmitype/StillImage"/>
    <dc:date>2021-04-28T22:10:55.356925</dc:date>
    <dc:format>image/svg+xml</dc:format>
    <dc:creator>
     <cc:Agent>
      <dc:title>Matplotlib v3.3.4, https://matplotlib.org/</dc:title>
     </cc:Agent>
    </dc:creator>
   </cc:Work>
  </rdf:RDF>
 </metadata>
 <defs>
  <style type="text/css">*{stroke-linecap:butt;stroke-linejoin:round;}</style>
 </defs>
 <g id="figure_1">
  <g id="patch_1">
   <path d="M 0 465.958125 
L 710.0875 465.958125 
L 710.0875 0 
L 0 0 
z
" style="fill:none;"/>
  </g>
  <g id="axes_1">
   <g id="patch_2">
    <path d="M 33.2875 442.08 
L 702.8875 442.08 
L 702.8875 7.2 
L 33.2875 7.2 
z
" style="fill:#ffffff;"/>
   </g>
   <g id="matplotlib.axis_1">
    <g id="xtick_1">
     <g id="line2d_1">
      <defs>
       <path d="M 0 0 
L 0 3.5 
" id="mf820a940b0" style="stroke:#000000;stroke-width:0.8;"/>
      </defs>
      <g>
       <use style="stroke:#000000;stroke-width:0.8;" x="63.723864" xlink:href="#mf820a940b0" y="442.08"/>
      </g>
     </g>
     <g id="text_1">
      <!-- 0 -->
      <g transform="translate(60.542614 456.678437)scale(0.1 -0.1)">
       <defs>
        <path d="M 31.78125 66.40625 
Q 24.171875 66.40625 20.328125 58.90625 
Q 16.5 51.421875 16.5 36.375 
Q 16.5 21.390625 20.328125 13.890625 
Q 24.171875 6.390625 31.78125 6.390625 
Q 39.453125 6.390625 43.28125 13.890625 
Q 47.125 21.390625 47.125 36.375 
Q 47.125 51.421875 43.28125 58.90625 
Q 39.453125 66.40625 31.78125 66.40625 
z
M 31.78125 74.21875 
Q 44.046875 74.21875 50.515625 64.515625 
Q 56.984375 54.828125 56.984375 36.375 
Q 56.984375 17.96875 50.515625 8.265625 
Q 44.046875 -1.421875 31.78125 -1.421875 
Q 19.53125 -1.421875 13.0625 8.265625 
Q 6.59375 17.96875 6.59375 36.375 
Q 6.59375 54.828125 13.0625 64.515625 
Q 19.53125 74.21875 31.78125 74.21875 
z
" id="DejaVuSans-48"/>
       </defs>
       <use xlink:href="#DejaVuSans-48"/>
      </g>
     </g>
    </g>
    <g id="xtick_2">
     <g id="line2d_2">
      <g>
       <use style="stroke:#000000;stroke-width:0.8;" x="174.40155" xlink:href="#mf820a940b0" y="442.08"/>
      </g>
     </g>
     <g id="text_2">
      <!-- 2 -->
      <g transform="translate(171.2203 456.678437)scale(0.1 -0.1)">
       <defs>
        <path d="M 19.1875 8.296875 
L 53.609375 8.296875 
L 53.609375 0 
L 7.328125 0 
L 7.328125 8.296875 
Q 12.9375 14.109375 22.625 23.890625 
Q 32.328125 33.6875 34.8125 36.53125 
Q 39.546875 41.84375 41.421875 45.53125 
Q 43.3125 49.21875 43.3125 52.78125 
Q 43.3125 58.59375 39.234375 62.25 
Q 35.15625 65.921875 28.609375 65.921875 
Q 23.96875 65.921875 18.8125 64.3125 
Q 13.671875 62.703125 7.8125 59.421875 
L 7.8125 69.390625 
Q 13.765625 71.78125 18.9375 73 
Q 24.125 74.21875 28.421875 74.21875 
Q 39.75 74.21875 46.484375 68.546875 
Q 53.21875 62.890625 53.21875 53.421875 
Q 53.21875 48.921875 51.53125 44.890625 
Q 49.859375 40.875 45.40625 35.40625 
Q 44.1875 33.984375 37.640625 27.21875 
Q 31.109375 20.453125 19.1875 8.296875 
z
" id="DejaVuSans-50"/>
       </defs>
       <use xlink:href="#DejaVuSans-50"/>
      </g>
     </g>
    </g>
    <g id="xtick_3">
     <g id="line2d_3">
      <g>
       <use style="stroke:#000000;stroke-width:0.8;" x="285.079236" xlink:href="#mf820a940b0" y="442.08"/>
      </g>
     </g>
     <g id="text_3">
      <!-- 4 -->
      <g transform="translate(281.897986 456.678437)scale(0.1 -0.1)">
       <defs>
        <path d="M 37.796875 64.3125 
L 12.890625 25.390625 
L 37.796875 25.390625 
z
M 35.203125 72.90625 
L 47.609375 72.90625 
L 47.609375 25.390625 
L 58.015625 25.390625 
L 58.015625 17.1875 
L 47.609375 17.1875 
L 47.609375 0 
L 37.796875 0 
L 37.796875 17.1875 
L 4.890625 17.1875 
L 4.890625 26.703125 
z
" id="DejaVuSans-52"/>
       </defs>
       <use xlink:href="#DejaVuSans-52"/>
      </g>
     </g>
    </g>
    <g id="xtick_4">
     <g id="line2d_4">
      <g>
       <use style="stroke:#000000;stroke-width:0.8;" x="395.756921" xlink:href="#mf820a940b0" y="442.08"/>
      </g>
     </g>
     <g id="text_4">
      <!-- 6 -->
      <g transform="translate(392.575671 456.678437)scale(0.1 -0.1)">
       <defs>
        <path d="M 33.015625 40.375 
Q 26.375 40.375 22.484375 35.828125 
Q 18.609375 31.296875 18.609375 23.390625 
Q 18.609375 15.53125 22.484375 10.953125 
Q 26.375 6.390625 33.015625 6.390625 
Q 39.65625 6.390625 43.53125 10.953125 
Q 47.40625 15.53125 47.40625 23.390625 
Q 47.40625 31.296875 43.53125 35.828125 
Q 39.65625 40.375 33.015625 40.375 
z
M 52.59375 71.296875 
L 52.59375 62.3125 
Q 48.875 64.0625 45.09375 64.984375 
Q 41.3125 65.921875 37.59375 65.921875 
Q 27.828125 65.921875 22.671875 59.328125 
Q 17.53125 52.734375 16.796875 39.40625 
Q 19.671875 43.65625 24.015625 45.921875 
Q 28.375 48.1875 33.59375 48.1875 
Q 44.578125 48.1875 50.953125 41.515625 
Q 57.328125 34.859375 57.328125 23.390625 
Q 57.328125 12.15625 50.6875 5.359375 
Q 44.046875 -1.421875 33.015625 -1.421875 
Q 20.359375 -1.421875 13.671875 8.265625 
Q 6.984375 17.96875 6.984375 36.375 
Q 6.984375 53.65625 15.1875 63.9375 
Q 23.390625 74.21875 37.203125 74.21875 
Q 40.921875 74.21875 44.703125 73.484375 
Q 48.484375 72.75 52.59375 71.296875 
z
" id="DejaVuSans-54"/>
       </defs>
       <use xlink:href="#DejaVuSans-54"/>
      </g>
     </g>
    </g>
    <g id="xtick_5">
     <g id="line2d_5">
      <g>
       <use style="stroke:#000000;stroke-width:0.8;" x="506.434607" xlink:href="#mf820a940b0" y="442.08"/>
      </g>
     </g>
     <g id="text_5">
      <!-- 8 -->
      <g transform="translate(503.253357 456.678437)scale(0.1 -0.1)">
       <defs>
        <path d="M 31.78125 34.625 
Q 24.75 34.625 20.71875 30.859375 
Q 16.703125 27.09375 16.703125 20.515625 
Q 16.703125 13.921875 20.71875 10.15625 
Q 24.75 6.390625 31.78125 6.390625 
Q 38.8125 6.390625 42.859375 10.171875 
Q 46.921875 13.96875 46.921875 20.515625 
Q 46.921875 27.09375 42.890625 30.859375 
Q 38.875 34.625 31.78125 34.625 
z
M 21.921875 38.8125 
Q 15.578125 40.375 12.03125 44.71875 
Q 8.5 49.078125 8.5 55.328125 
Q 8.5 64.0625 14.71875 69.140625 
Q 20.953125 74.21875 31.78125 74.21875 
Q 42.671875 74.21875 48.875 69.140625 
Q 55.078125 64.0625 55.078125 55.328125 
Q 55.078125 49.078125 51.53125 44.71875 
Q 48 40.375 41.703125 38.8125 
Q 48.828125 37.15625 52.796875 32.3125 
Q 56.78125 27.484375 56.78125 20.515625 
Q 56.78125 9.90625 50.3125 4.234375 
Q 43.84375 -1.421875 31.78125 -1.421875 
Q 19.734375 -1.421875 13.25 4.234375 
Q 6.78125 9.90625 6.78125 20.515625 
Q 6.78125 27.484375 10.78125 32.3125 
Q 14.796875 37.15625 21.921875 38.8125 
z
M 18.3125 54.390625 
Q 18.3125 48.734375 21.84375 45.5625 
Q 25.390625 42.390625 31.78125 42.390625 
Q 38.140625 42.390625 41.71875 45.5625 
Q 45.3125 48.734375 45.3125 54.390625 
Q 45.3125 60.0625 41.71875 63.234375 
Q 38.140625 66.40625 31.78125 66.40625 
Q 25.390625 66.40625 21.84375 63.234375 
Q 18.3125 60.0625 18.3125 54.390625 
z
" id="DejaVuSans-56"/>
       </defs>
       <use xlink:href="#DejaVuSans-56"/>
      </g>
     </g>
    </g>
    <g id="xtick_6">
     <g id="line2d_6">
      <g>
       <use style="stroke:#000000;stroke-width:0.8;" x="617.112293" xlink:href="#mf820a940b0" y="442.08"/>
      </g>
     </g>
     <g id="text_6">
      <!-- 10 -->
      <g transform="translate(610.749793 456.678437)scale(0.1 -0.1)">
       <defs>
        <path d="M 12.40625 8.296875 
L 28.515625 8.296875 
L 28.515625 63.921875 
L 10.984375 60.40625 
L 10.984375 69.390625 
L 28.421875 72.90625 
L 38.28125 72.90625 
L 38.28125 8.296875 
L 54.390625 8.296875 
L 54.390625 0 
L 12.40625 0 
z
" id="DejaVuSans-49"/>
       </defs>
       <use xlink:href="#DejaVuSans-49"/>
       <use x="63.623047" xlink:href="#DejaVuSans-48"/>
      </g>
     </g>
    </g>
   </g>
   <g id="matplotlib.axis_2">
    <g id="ytick_1">
     <g id="line2d_7">
      <defs>
       <path d="M 0 0 
L -3.5 0 
" id="m1458391794" style="stroke:#000000;stroke-width:0.8;"/>
      </defs>
      <g>
       <use style="stroke:#000000;stroke-width:0.8;" x="33.2875" xlink:href="#m1458391794" y="433.906899"/>
      </g>
     </g>
     <g id="text_7">
      <!-- 0 -->
      <g transform="translate(19.925 437.706118)scale(0.1 -0.1)">
       <use xlink:href="#DejaVuSans-48"/>
      </g>
     </g>
    </g>
    <g id="ytick_2">
     <g id="line2d_8">
      <g>
       <use style="stroke:#000000;stroke-width:0.8;" x="33.2875" xlink:href="#m1458391794" y="378.216803"/>
      </g>
     </g>
     <g id="text_8">
      <!-- 50 -->
      <g transform="translate(13.5625 382.016021)scale(0.1 -0.1)">
       <defs>
        <path d="M 10.796875 72.90625 
L 49.515625 72.90625 
L 49.515625 64.59375 
L 19.828125 64.59375 
L 19.828125 46.734375 
Q 21.96875 47.46875 24.109375 47.828125 
Q 26.265625 48.1875 28.421875 48.1875 
Q 40.625 48.1875 47.75 41.5 
Q 54.890625 34.8125 54.890625 23.390625 
Q 54.890625 11.625 47.5625 5.09375 
Q 40.234375 -1.421875 26.90625 -1.421875 
Q 22.3125 -1.421875 17.546875 -0.640625 
Q 12.796875 0.140625 7.71875 1.703125 
L 7.71875 11.625 
Q 12.109375 9.234375 16.796875 8.0625 
Q 21.484375 6.890625 26.703125 6.890625 
Q 35.15625 6.890625 40.078125 11.328125 
Q 45.015625 15.765625 45.015625 23.390625 
Q 45.015625 31 40.078125 35.4375 
Q 35.15625 39.890625 26.703125 39.890625 
Q 22.75 39.890625 18.8125 39.015625 
Q 14.890625 38.140625 10.796875 36.28125 
z
" id="DejaVuSans-53"/>
       </defs>
       <use xlink:href="#DejaVuSans-53"/>
       <use x="63.623047" xlink:href="#DejaVuSans-48"/>
      </g>
     </g>
    </g>
    <g id="ytick_3">
     <g id="line2d_9">
      <g>
       <use style="stroke:#000000;stroke-width:0.8;" x="33.2875" xlink:href="#m1458391794" y="322.526706"/>
      </g>
     </g>
     <g id="text_9">
      <!-- 100 -->
      <g transform="translate(7.2 326.325925)scale(0.1 -0.1)">
       <use xlink:href="#DejaVuSans-49"/>
       <use x="63.623047" xlink:href="#DejaVuSans-48"/>
       <use x="127.246094" xlink:href="#DejaVuSans-48"/>
      </g>
     </g>
    </g>
    <g id="ytick_4">
     <g id="line2d_10">
      <g>
       <use style="stroke:#000000;stroke-width:0.8;" x="33.2875" xlink:href="#m1458391794" y="266.836609"/>
      </g>
     </g>
     <g id="text_10">
      <!-- 150 -->
      <g transform="translate(7.2 270.635828)scale(0.1 -0.1)">
       <use xlink:href="#DejaVuSans-49"/>
       <use x="63.623047" xlink:href="#DejaVuSans-53"/>
       <use x="127.246094" xlink:href="#DejaVuSans-48"/>
      </g>
     </g>
    </g>
    <g id="ytick_5">
     <g id="line2d_11">
      <g>
       <use style="stroke:#000000;stroke-width:0.8;" x="33.2875" xlink:href="#m1458391794" y="211.146513"/>
      </g>
     </g>
     <g id="text_11">
      <!-- 200 -->
      <g transform="translate(7.2 214.945731)scale(0.1 -0.1)">
       <use xlink:href="#DejaVuSans-50"/>
       <use x="63.623047" xlink:href="#DejaVuSans-48"/>
       <use x="127.246094" xlink:href="#DejaVuSans-48"/>
      </g>
     </g>
    </g>
    <g id="ytick_6">
     <g id="line2d_12">
      <g>
       <use style="stroke:#000000;stroke-width:0.8;" x="33.2875" xlink:href="#m1458391794" y="155.456416"/>
      </g>
     </g>
     <g id="text_12">
      <!-- 250 -->
      <g transform="translate(7.2 159.255635)scale(0.1 -0.1)">
       <use xlink:href="#DejaVuSans-50"/>
       <use x="63.623047" xlink:href="#DejaVuSans-53"/>
       <use x="127.246094" xlink:href="#DejaVuSans-48"/>
      </g>
     </g>
    </g>
    <g id="ytick_7">
     <g id="line2d_13">
      <g>
       <use style="stroke:#000000;stroke-width:0.8;" x="33.2875" xlink:href="#m1458391794" y="99.766319"/>
      </g>
     </g>
     <g id="text_13">
      <!-- 300 -->
      <g transform="translate(7.2 103.565538)scale(0.1 -0.1)">
       <defs>
        <path d="M 40.578125 39.3125 
Q 47.65625 37.796875 51.625 33 
Q 55.609375 28.21875 55.609375 21.1875 
Q 55.609375 10.40625 48.1875 4.484375 
Q 40.765625 -1.421875 27.09375 -1.421875 
Q 22.515625 -1.421875 17.65625 -0.515625 
Q 12.796875 0.390625 7.625 2.203125 
L 7.625 11.71875 
Q 11.71875 9.328125 16.59375 8.109375 
Q 21.484375 6.890625 26.8125 6.890625 
Q 36.078125 6.890625 40.9375 10.546875 
Q 45.796875 14.203125 45.796875 21.1875 
Q 45.796875 27.640625 41.28125 31.265625 
Q 36.765625 34.90625 28.71875 34.90625 
L 20.21875 34.90625 
L 20.21875 43.015625 
L 29.109375 43.015625 
Q 36.375 43.015625 40.234375 45.921875 
Q 44.09375 48.828125 44.09375 54.296875 
Q 44.09375 59.90625 40.109375 62.90625 
Q 36.140625 65.921875 28.71875 65.921875 
Q 24.65625 65.921875 20.015625 65.03125 
Q 15.375 64.15625 9.8125 62.3125 
L 9.8125 71.09375 
Q 15.4375 72.65625 20.34375 73.4375 
Q 25.25 74.21875 29.59375 74.21875 
Q 40.828125 74.21875 47.359375 69.109375 
Q 53.90625 64.015625 53.90625 55.328125 
Q 53.90625 49.265625 50.4375 45.09375 
Q 46.96875 40.921875 40.578125 39.3125 
z
" id="DejaVuSans-51"/>
       </defs>
       <use xlink:href="#DejaVuSans-51"/>
       <use x="63.623047" xlink:href="#DejaVuSans-48"/>
       <use x="127.246094" xlink:href="#DejaVuSans-48"/>
      </g>
     </g>
    </g>
    <g id="ytick_8">
     <g id="line2d_14">
      <g>
       <use style="stroke:#000000;stroke-width:0.8;" x="33.2875" xlink:href="#m1458391794" y="44.076223"/>
      </g>
     </g>
     <g id="text_14">
      <!-- 350 -->
      <g transform="translate(7.2 47.875442)scale(0.1 -0.1)">
       <use xlink:href="#DejaVuSans-51"/>
       <use x="63.623047" xlink:href="#DejaVuSans-53"/>
       <use x="127.246094" xlink:href="#DejaVuSans-48"/>
      </g>
     </g>
    </g>
   </g>
   <g id="line2d_15">
    <path clip-path="url(#pf87dfe05a8)" d="M 63.723864 344.802745 
L 119.062707 320.174506 
L 174.40155 354.211908 
L 229.740393 333.652788 
L 285.079236 337.916272 
L 340.418079 365.502855 
L 395.756921 374.792585 
L 451.095764 378.342587 
L 506.434607 400.318202 
L 561.77345 378.701698 
L 617.112293 380.796062 
L 672.451136 364.074215 
" style="fill:none;stroke:#1f77b4;stroke-linecap:square;stroke-width:1.5;"/>
   </g>
   <g id="line2d_16">
    <path clip-path="url(#pf87dfe05a8)" d="M 63.723864 344.802745 
L 119.062707 363.355132 
L 174.40155 352.394063 
L 229.740393 291.606977 
L 285.079236 180.474525 
L 340.418079 203.390431 
L 395.756921 132.170873 
L 451.095764 221.601108 
L 506.434607 292.983374 
L 561.77345 334.029304 
L 617.112293 341.701477 
L 672.451136 363.139512 
" style="fill:none;stroke:#ff7f0e;stroke-linecap:square;stroke-width:1.5;"/>
   </g>
   <g id="line2d_17">
    <path clip-path="url(#pf87dfe05a8)" d="M 63.723864 344.802745 
L 119.062707 292.585781 
L 174.40155 315.192044 
L 229.740393 302.664543 
L 285.079236 293.909512 
L 340.418079 279.534867 
L 395.756921 171.066901 
L 451.095764 232.21274 
L 506.434607 260.33763 
L 561.77345 236.119523 
L 617.112293 237.499928 
L 672.451136 26.967273 
" style="fill:none;stroke:#2ca02c;stroke-linecap:square;stroke-width:1.5;"/>
   </g>
   <g id="line2d_18">
    <path clip-path="url(#pf87dfe05a8)" d="M 63.723864 344.802745 
L 119.062707 366.922157 
L 174.40155 389.912137 
L 229.740393 358.233642 
L 285.079236 329.837709 
L 340.418079 312.605867 
L 395.756921 300.530345 
L 451.095764 343.859518 
L 506.434607 365.400728 
L 561.77345 366.205686 
L 617.112293 375.452723 
L 672.451136 383.459124 
" style="fill:none;stroke:#d62728;stroke-linecap:square;stroke-width:1.5;"/>
   </g>
   <g id="line2d_19">
    <path clip-path="url(#pf87dfe05a8)" d="M 63.723864 344.802745 
L 119.062707 362.715204 
L 174.40155 286.902731 
L 229.740393 284.354489 
L 285.079236 222.660984 
L 340.418079 262.846503 
L 395.756921 204.834946 
L 451.095764 215.826144 
L 506.434607 221.262617 
L 561.77345 195.354542 
L 617.112293 226.426184 
L 672.451136 193.000342 
" style="fill:none;stroke:#9467bd;stroke-linecap:square;stroke-width:1.5;"/>
   </g>
   <g id="line2d_20">
    <path clip-path="url(#pf87dfe05a8)" d="M 63.723864 344.802745 
L 119.062707 332.894545 
L 174.40155 325.328811 
L 229.740393 333.482856 
L 285.079236 319.534296 
L 340.418079 337.814833 
L 395.756921 332.448157 
L 451.095764 326.193749 
L 506.434607 314.001295 
L 561.77345 353.433781 
L 617.112293 348.477953 
L 672.451136 336.829448 
" style="fill:none;stroke:#8c564b;stroke-linecap:square;stroke-width:1.5;"/>
   </g>
   <g id="line2d_21">
    <path clip-path="url(#pf87dfe05a8)" d="M 63.723864 344.802745 
L 119.062707 344.41587 
L 174.40155 358.232785 
L 229.740393 346.597029 
L 285.079236 328.637852 
L 340.418079 305.561681 
L 395.756921 288.942838 
L 451.095764 321.109884 
L 506.434607 269.164126 
L 561.77345 302.791846 
L 617.112293 323.238586 
L 672.451136 303.346494 
" style="fill:none;stroke:#e377c2;stroke-linecap:square;stroke-width:1.5;"/>
   </g>
   <g id="line2d_22">
    <path clip-path="url(#pf87dfe05a8)" d="M 63.723864 344.802745 
L 119.062707 361.890255 
L 174.40155 377.67833 
L 229.740393 392.580037 
L 285.079236 387.055777 
L 340.418079 384.798753 
L 395.756921 373.206473 
L 451.095764 400.311278 
L 506.434607 403.316584 
L 561.77345 416.321577 
L 617.112293 417.762134 
L 672.451136 422.312727 
" style="fill:none;stroke:#7f7f7f;stroke-linecap:square;stroke-width:1.5;"/>
   </g>
   <g id="line2d_23">
    <path clip-path="url(#pf87dfe05a8)" d="M 63.723864 344.802745 
L 119.062707 314.230313 
L 174.40155 339.461412 
L 229.740393 338.811218 
L 285.079236 352.425961 
L 340.418079 312.145909 
L 395.756921 308.509218 
L 451.095764 355.983342 
L 506.434607 347.033376 
L 561.77345 326.032656 
L 617.112293 366.735686 
L 672.451136 354.588317 
" style="fill:none;stroke:#bcbd22;stroke-linecap:square;stroke-width:1.5;"/>
   </g>
   <g id="line2d_24">
    <path clip-path="url(#pf87dfe05a8)" d="M 63.723864 344.802745 
L 119.062707 351.737637 
L 174.40155 353.377718 
L 229.740393 373.581269 
L 285.079236 386.572364 
L 340.418079 381.769995 
L 395.756921 380.230777 
L 451.095764 377.483619 
L 506.434607 386.370289 
L 561.77345 398.369074 
L 617.112293 405.183035 
L 672.451136 390.467103 
" style="fill:none;stroke:#17becf;stroke-linecap:square;stroke-width:1.5;"/>
   </g>
   <g id="line2d_25">
    <path clip-path="url(#pf87dfe05a8)" d="M 63.723864 344.802745 
L 119.062707 331.821827 
L 174.40155 301.845507 
L 229.740393 350.314546 
L 285.079236 359.978927 
L 340.418079 349.038343 
L 395.756921 329.564233 
L 451.095764 357.486328 
L 506.434607 377.254735 
L 561.77345 384.663542 
L 617.112293 372.40907 
L 672.451136 390.343662 
" style="fill:none;stroke:#1f77b4;stroke-linecap:square;stroke-width:1.5;"/>
   </g>
   <g id="line2d_26">
    <path clip-path="url(#pf87dfe05a8)" d="M 63.723864 344.802745 
L 119.062707 287.823988 
L 174.40155 270.031149 
L 229.740393 292.986781 
L 285.079236 305.71092 
L 340.418079 357.989059 
L 395.756921 336.704544 
L 451.095764 328.948739 
L 506.434607 353.72457 
L 561.77345 358.644512 
L 617.112293 331.41199 
L 672.451136 302.906099 
" style="fill:none;stroke:#ff7f0e;stroke-linecap:square;stroke-width:1.5;"/>
   </g>
   <g id="line2d_27">
    <path clip-path="url(#pf87dfe05a8)" d="M 63.723864 344.802745 
L 119.062707 359.948392 
L 174.40155 376.504162 
L 229.740393 403.286204 
L 285.079236 401.546231 
L 340.418079 406.052538 
L 395.756921 407.408036 
L 451.095764 400.363575 
L 506.434607 404.083222 
L 561.77345 404.718085 
L 617.112293 395.39635 
L 672.451136 382.471765 
" style="fill:none;stroke:#2ca02c;stroke-linecap:square;stroke-width:1.5;"/>
   </g>
   <g id="line2d_28">
    <path clip-path="url(#pf87dfe05a8)" d="M 63.723864 344.802745 
L 119.062707 336.523517 
L 174.40155 300.337628 
L 229.740393 324.403624 
L 285.079236 311.806627 
L 340.418079 317.55929 
L 395.756921 294.431766 
L 451.095764 310.556786 
L 506.434607 229.913831 
L 561.77345 246.619545 
L 617.112293 244.606751 
L 672.451136 223.794351 
" style="fill:none;stroke:#d62728;stroke-linecap:square;stroke-width:1.5;"/>
   </g>
   <g id="line2d_29">
    <path clip-path="url(#pf87dfe05a8)" d="M 63.723864 344.802745 
L 119.062707 356.365078 
L 174.40155 381.899724 
L 229.740393 322.845161 
L 285.079236 368.163816 
L 340.418079 387.299337 
L 395.756921 386.731558 
L 451.095764 380.273662 
L 506.434607 358.219595 
L 561.77345 358.239932 
L 617.112293 359.293164 
L 672.451136 352.682648 
" style="fill:none;stroke:#9467bd;stroke-linecap:square;stroke-width:1.5;"/>
   </g>
   <g id="line2d_30">
    <path clip-path="url(#pf87dfe05a8)" d="M 63.723864 344.802745 
L 119.062707 364.456019 
L 174.40155 352.373293 
L 229.740393 386.096136 
L 285.079236 365.654394 
L 340.418079 380.797103 
L 395.756921 375.655908 
L 451.095764 380.042321 
L 506.434607 392.727862 
L 561.77345 392.543936 
L 617.112293 381.26945 
L 672.451136 378.42631 
" style="fill:none;stroke:#8c564b;stroke-linecap:square;stroke-width:1.5;"/>
   </g>
   <g id="line2d_31">
    <path clip-path="url(#pf87dfe05a8)" d="M 63.723864 344.802745 
L 119.062707 360.473472 
L 174.40155 340.724239 
L 229.740393 338.236217 
L 285.079236 320.261971 
L 340.418079 373.123045 
L 395.756921 373.312661 
L 451.095764 387.678466 
L 506.434607 391.931233 
L 561.77345 400.987633 
L 617.112293 400.719701 
L 672.451136 406.729393 
" style="fill:none;stroke:#e377c2;stroke-linecap:square;stroke-width:1.5;"/>
   </g>
   <g id="line2d_32">
    <path clip-path="url(#pf87dfe05a8)" d="M 63.723864 344.802745 
L 119.062707 330.326536 
L 174.40155 359.987836 
L 229.740393 348.334625 
L 285.079236 307.443745 
L 340.418079 318.243001 
L 395.756921 256.819659 
L 451.095764 251.494948 
L 506.434607 335.606905 
L 561.77345 321.66251 
L 617.112293 294.952942 
L 672.451136 306.956132 
" style="fill:none;stroke:#7f7f7f;stroke-linecap:square;stroke-width:1.5;"/>
   </g>
   <g id="line2d_33">
    <path clip-path="url(#pf87dfe05a8)" d="M 63.723864 344.802745 
L 119.062707 385.976588 
L 174.40155 368.308688 
L 229.740393 371.680004 
L 285.079236 355.733753 
L 340.418079 368.795853 
L 395.756921 369.143307 
L 451.095764 326.44366 
L 506.434607 343.564067 
L 561.77345 356.769442 
L 617.112293 361.93575 
L 672.451136 361.859181 
" style="fill:none;stroke:#bcbd22;stroke-linecap:square;stroke-width:1.5;"/>
   </g>
   <g id="line2d_34">
    <path clip-path="url(#pf87dfe05a8)" d="M 63.723864 344.802745 
L 119.062707 378.994632 
L 174.40155 363.810363 
L 229.740393 343.977794 
L 285.079236 366.886918 
L 340.418079 380.568302 
L 395.756921 374.127282 
L 451.095764 384.422023 
L 506.434607 372.749647 
L 561.77345 383.03032 
L 617.112293 389.717037 
L 672.451136 394.1564 
" style="fill:none;stroke:#17becf;stroke-linecap:square;stroke-width:1.5;"/>
   </g>
   <g id="patch_3">
    <path d="M 33.2875 442.08 
L 33.2875 7.2 
" style="fill:none;stroke:#000000;stroke-linecap:square;stroke-linejoin:miter;stroke-width:0.8;"/>
   </g>
   <g id="patch_4">
    <path d="M 702.8875 442.08 
L 702.8875 7.2 
" style="fill:none;stroke:#000000;stroke-linecap:square;stroke-linejoin:miter;stroke-width:0.8;"/>
   </g>
   <g id="patch_5">
    <path d="M 33.2875 442.08 
L 702.8875 442.08 
" style="fill:none;stroke:#000000;stroke-linecap:square;stroke-linejoin:miter;stroke-width:0.8;"/>
   </g>
   <g id="patch_6">
    <path d="M 33.2875 7.2 
L 702.8875 7.2 
" style="fill:none;stroke:#000000;stroke-linecap:square;stroke-linejoin:miter;stroke-width:0.8;"/>
   </g>
  </g>
 </g>
 <defs>
  <clipPath id="pf87dfe05a8">
   <rect height="434.88" width="669.6" x="33.2875" y="7.2"/>
  </clipPath>
 </defs>
</svg>
